<svg version="1.2" xmlns="http://www.w3.org/2000/svg" viewBox="0 0 691 565" width="691" height="565"><style>.a{opacity:.98;fill:#dfb759}</style><path fill-rule="evenodd" class="a" d="m146.5 0.4c2.8 0.3 5.7 1.2 6.5 2.1 1.3 1.4 1.6 15.9 2.5 225.6l12.5-8.2c6.9-4.5 16.8-10.6 22-13.5 5.2-2.9 13.1-6.7 17.5-8.5 4.4-1.7 12.3-4.3 17.5-5.7 8.2-2.1 11.7-2.5 25-2.5 11.2 0 17.6 0.4 23 1.7 4.1 0.9 11.4 3 16.3 4.6 4.8 1.7 11.5 4.4 14.9 6.1 3.5 1.7 9.4 5.2 13.3 7.6 3.8 2.5 11.3 8.9 16.5 14.2 5.3 5.3 12.1 13.4 15.2 18.1 3.1 4.7 7.7 12.5 10.2 17.5 2.6 4.9 6.4 13.5 8.6 19 2.1 5.5 5 14 6.5 19 1.4 4.9 3.7 13.9 5 20 1.3 6 3.1 17.3 4.1 25 1.1 9.2 1.7 22.3 1.8 38 0 13.2-0.2 28.4-0.6 33.8-0.5 5.3-0.6 9.7-0.3 9.7 0.3 0 4.1-5.5 8.6-12.2 4.4-6.8 11.8-19.7 16.3-28.8 4.5-9.1 9.6-20.8 11.4-26 1.8-5.2 3.9-12.7 4.7-16.5 0.8-3.9 1.5-11.6 1.5-17.2 0-6.3-0.8-14.1-2-20-1-5.4-3.6-14.8-5.6-20.8-2-6.1-5.4-15.5-7.6-21-2.2-5.5-6.4-15.3-9.4-21.7-3-6.5-5.4-13.3-5.4-15-0.1-1.9 0.7-4.1 1.7-5.1 1.7-1.6 5-1.8 90.1-2.2l2.6 2.5c1.8 1.7 2.6 3.5 2.6 5.8 0 1.7-0.8 3.9-1.7 4.8-1 1-4.3 3.3-7.3 5.1-3 1.9-6.3 4.5-7.2 5.6-1 1.3-1.8 3.9-1.8 6.2 0.1 2.9 4 13.2 14.9 38.5 8.2 19 24.9 57.9 37.1 86.5 12.3 28.6 22.9 53.6 25.2 59l1.5-3.5c0.8-1.9 5.7-15 11-29 5.2-14 14.9-40.2 21.4-58.2 6.5-18.1 13.5-38.1 15.5-44.5 2.6-8.2 3.8-14.4 4.1-20.3 0.4-7.1 0.1-9.5-1.7-14.5-1.7-4.6-3.7-7.4-8.5-12-4.1-4-9.5-7.7-16.1-11.2-5.4-2.8-10.8-6.1-11.9-7.3-1.1-1.2-2-3.5-2-5.1 0-1.8 1-3.9 5.5-8.4l55.8-0.3c43.1-0.1 56.3 0.1 58.2 1 1.3 0.7 3.1 2.4 3.9 3.8 1.2 2 1.2 3.1 0.2 5.5-0.7 1.9-3.8 4.9-8.3 8-3.9 2.8-10 8.1-13.5 12-4.9 5.4-7.9 10.1-12.8 20-3.5 7.1-10.7 24-15.9 37.5-5.2 13.5-16.7 43.4-25.6 66.5-8.9 23.1-20.4 52.8-25.5 66-5.1 13.2-15.1 39.1-22.3 57.5-7.1 18.4-15.1 39.1-17.8 46-3.8 9.6-5.8 13.4-8.9 16.6-2.5 2.5-5.3 4.3-7.5 4.7-1.9 0.4-5.3 0.7-7.5 0.7-2.2 0-5.7-0.5-7.7-1-2.1-0.6-5.7-2.7-7.9-4.7-2.3-2.1-5.6-6.5-7.4-9.8-1.9-3.3-7.9-16.4-13.5-29-5.6-12.7-17.1-38.7-25.5-58-8.4-19.2-17.6-40.2-20.5-46.5-2.8-6.3-5.4-11.9-5.8-12.3-0.4-0.4-2.5 2.1-4.6 5.5-2.2 3.5-8.9 13.7-14.9 22.8-6.1 9.1-16.7 23.9-23.6 33-6.9 9.1-14.8 19.2-17.5 22.5-2.8 3.3-10.4 11.6-17.1 18.4-6.6 6.8-15.4 15.1-19.5 18.6-4.1 3.4-11.1 8.6-15.5 11.6-4.4 2.9-11.6 7.2-16 9.6-4.4 2.3-11.8 5.7-16.5 7.6-4.7 1.9-11.9 4.4-16 5.6-4.1 1.1-11.8 2.9-17 4-5.2 1.1-15.1 2.5-22 3.2-7.3 0.7-17.3 0.9-24 0.5-6.3-0.3-15.6-1.3-20.5-2.1-5-0.8-14.2-2.7-20.5-4.4-6.3-1.6-17.6-5.1-25-7.8-7.4-2.8-15.7-5.6-18.5-6.4-2.8-0.8-9-1.4-14-1.3-6.7 0-10.3 0.6-14 2.1-2.7 1.1-11.3 4.9-19 8.4-10 4.5-15.6 6.4-19.5 6.8-4.8 0.4-5.8 0.1-8.1-2-2.3-2.1-2.6-3.4-3.2-11.9-0.4-5.2-0.7-108.7-0.7-230 0-142.1-0.4-221.8-1-224.3-0.6-2-2.7-5.6-4.7-7.8-2.1-2.3-6.3-5.4-9.3-6.9-3-1.5-10-4.7-15.5-7-5.5-2.4-11.4-5.3-13.2-6.4-1.8-1.2-3.7-3.1-4.3-4.3-0.5-1.3-1-3.7-1-5.3 0-1.7 1-4.1 2.3-5.5 1.7-1.9 15.5-6.9 65.2-23.4 34.6-11.6 65.5-21.9 68.5-23.1 3.9-1.4 7-1.9 10.5-1.6zm46.5 260.7c-3 2-7.5 5.3-10 7.5-2.5 2.1-7.2 6.8-10.4 10.4-3.2 3.6-8.8 11-12.6 16.5-3.7 5.5-9.2 14.7-12.3 20.5-3.1 5.8-8 16.6-11 24-3 7.4-7.3 19.3-9.5 26.5-2.2 7.1-5.4 18.4-7.1 25-1.6 6.6-4.1 18.5-5.5 26.5-1.3 8-2.9 18.3-3.5 23-0.6 4.7-1.5 15.9-2.1 25-0.6 9.1-0.9 16.6-0.8 16.7 0.2 0.2 2.1-0.3 4.3-1.1 2.2-0.7 7.4-3 11.5-5.1 4.1-2.1 11.3-6.2 16-9.3 4.7-3 12.3-8.4 17-12 4.7-3.6 13.1-10.4 18.8-15.1 5.6-4.7 10.3-8.8 10.3-9.1 0-0.3-3.3-2.7-7.3-5.5-4-2.7-9.4-6.7-12-8.7-2.6-2.1-4.8-4.6-4.8-5.5-0.1-1 3.1-4.5 7.2-7.9 4-3.3 11.7-9.4 17.1-13.5 5.4-4.1 9.8-7.9 9.8-8.4 0-0.6-4.3-4.2-9.6-8-5.3-3.9-9.4-7.6-9.3-8.4 0.2-0.7 6.2-5.7 13.5-11 7.2-5.3 13.3-9.9 13.5-10.2 0.2-0.3-2.6-2.8-6.1-5.5-3.6-2.7-6.9-5.6-7.5-6.6-0.9-1.3-0.4-2.5 2.5-6 1.9-2.3 6.5-8.8 10.1-14.3 3.6-5.5 7.8-11.1 9.3-12.5l2.7-2.5c4.5 5.4 7.4 9.9 9.3 13.5 1.9 3.6 6.1 9.9 9.4 14 3.7 4.7 5.7 8 5.3 8.9-0.4 0.8-4.1 3.7-8.2 6.4-7.1 4.6-7.4 5-5.7 6.6 1 0.9 6.6 5.2 12.5 9.6 5.9 4.4 10.8 8.7 10.9 9.5 0.2 0.9-3.6 4.4-9.2 8.5-5.3 3.8-9.5 7.2-9.5 7.5 0 0.3 5.3 4.3 11.7 9 6.4 4.7 14.2 10.6 17.5 13.3 3.6 2.9 5.8 5.5 5.8 6.7 0 1.4-3.7 4.8-12.5 11.3l-12.5 9.2c5.8 6 11.8 11.6 17 16.3 5.2 4.6 14.2 11.6 20 15.5 5.8 3.9 11.1 7.8 11.8 8.6 0.9 1.1 1.1 3.7 0.8 8.1-0.3 5-1.4 8.4-4.5 14.5-2.2 4.4-7.4 12.9-11.7 19-4.2 6-8.4 12.1-9.3 13.5l-1.6 2.5c6.2-3.7 10.7-6.6 14-9 3.3-2.3 8.4-6.7 11.4-9.6 3-3 7.4-8.1 9.9-11.4 2.4-3.3 6.3-9.8 8.7-14.5 2.3-4.7 5.2-11.4 6.3-15 1.1-3.6 2.7-10.1 3.6-14.5 1.2-5.4 1.7-13 1.7-23.5 0-8.5-0.5-19.1-1.1-23.5-0.6-4.4-2-12.7-3.1-18.5-1.1-5.8-3.6-15.9-5.6-22.5-1.9-6.6-5.1-16.1-7-21-2-5-6.2-14.3-9.4-20.7-3.3-6.5-8.3-15.7-11.3-20.5-3-4.9-8.4-12.4-11.9-16.8-3.5-4.4-9.9-11.3-14.3-15.2-4.3-4-11.1-9-14.9-11.2-3.9-2.2-9.7-4.7-13-5.6-3.3-0.8-8.5-1.5-11.5-1.5-3 0.1-8 0.9-11 1.9-3 0.9-8 3.3-11 5.2z"/></svg>